<?xml version="1.0" standalone="no"?>
<!DOCTYPE svg PUBLIC "-//W3C//DTD SVG 20010904//EN"
 "http://www.w3.org/TR/2001/REC-SVG-20010904/DTD/svg10.dtd">
<svg version="1.0" xmlns="http://www.w3.org/2000/svg"
 width="1392.000000pt" height="1392.000000pt" viewBox="0 0 1392.000000 1392.000000"
 preserveAspectRatio="xMidYMid meet">
<metadata>
Created by potrace 1.11, written by Peter Selinger 2001-2013
</metadata>
<g transform="translate(0.000000,1392.000000) scale(0.100000,-0.100000)"
fill="#000000" stroke="none">
<path d="M5160 11487 c0 -18 7 -87 17 -152 20 -152 23 -435 5 -487 -9 -25 -20
-38 -31 -38 -14 0 -31 37 -81 175 -61 172 -76 200 -96 187 -49 -33 -173 -289
-243 -504 -21 -64 -53 -118 -71 -118 -26 0 -50 145 -50 308 0 167 -9 166 -215
-42 -180 -182 -298 -355 -371 -545 -26 -66 -32 -75 -72 -93 -29 -14 -51 -34
-68 -63 -35 -60 -71 -213 -91 -389 l-18 -148 -35 48 c-103 145 -283 294 -428
354 -210 88 -488 75 -652 -30 -109 -70 -201 -208 -236 -355 -19 -83 -22 -242
-5 -334 40 -213 158 -428 325 -594 43 -43 77 -79 75 -81 -2 -2 -49 -39 -104
-83 -174 -139 -338 -325 -449 -510 -67 -112 -153 -305 -195 -438 -187 -588
-134 -1232 150 -1796 l50 -101 -15 -172 c-54 -582 -91 -1277 -104 -1956 -17
-882 0 -3419 23 -3476 16 -40 66 -62 106 -47 16 6 29 7 29 2 0 -5 1840 -9
4621 -9 l4621 0 27 28 c32 31 35 49 51 282 22 331 32 920 26 1545 -4 352 -9
672 -11 710 -4 66 -7 223 -20 1005 -13 716 -30 1194 -61 1646 l-16 230 56 86
c80 122 196 366 244 510 95 286 127 480 127 783 0 301 -29 482 -122 755 -121
361 -366 704 -658 924 -49 37 -89 71 -88 74 1 4 31 51 67 105 268 406 316 754
140 1019 -80 120 -185 194 -334 234 -96 26 -280 23 -385 -6 -128 -35 -118 -36
-139 7 -28 60 -158 251 -225 329 -98 116 -188 176 -508 337 -158 79 -342 166
-408 192 -178 71 -495 173 -805 260 -151 42 -385 107 -520 145 -291 82 -315
87 -336 69 -14 -11 -15 -31 -9 -146 7 -129 7 -133 -13 -133 -11 0 -25 7 -33
16 -28 34 -142 107 -221 141 -45 19 -177 59 -292 88 -119 29 -246 68 -291 87
-48 21 -84 32 -91 27 -11 -9 8 -188 27 -243 17 -53 1 -54 -169 -2 -209 63
-473 163 -640 241 -80 38 -140 61 -145 56 -6 -6 12 -55 41 -118 70 -151 85
-209 57 -219 -28 -11 -337 190 -570 371 -60 47 -117 85 -127 85 -14 0 -18 -8
-18 -33z m2370 -1612 c676 -61 1344 -224 2057 -503 117 -46 242 -117 434 -247
134 -91 323 -234 317 -241 -2 -1 -21 1 -43 6 -170 37 -485 56 -675 41 -705
-57 -1247 -403 -1575 -1006 -106 -193 -196 -477 -231 -721 -20 -144 -23 -428
-5 -569 32 -254 96 -474 206 -700 349 -721 1061 -1165 1964 -1225 350 -23 712
35 944 151 132 67 264 170 389 302 37 39 69 69 71 67 16 -17 53 -1014 62
-1635 3 -231 8 -473 11 -538 l6 -119 -48 25 c-260 131 -679 277 -1128 392
-115 30 -213 59 -217 66 -4 6 -44 49 -90 95 -68 69 -88 84 -113 84 -17 0 -105
-18 -194 -39 l-164 -39 -146 23 c-443 72 -932 121 -1547 157 -289 17 -1533 17
-1905 0 -1447 -66 -2638 -217 -3464 -442 -61 -16 -112 -28 -114 -26 -11 12 5
698 28 1176 19 384 62 985 71 995 2 2 36 -35 74 -82 82 -101 247 -261 343
-332 80 -61 237 -140 347 -176 245 -78 568 -104 885 -70 1128 120 1921 863
2050 1919 14 115 14 407 0 527 -106 885 -715 1569 -1540 1728 -321 61 -701 51
-1055 -28 -49 -11 -92 -18 -94 -15 -15 14 262 262 374 335 33 21 78 52 100 68
94 69 169 102 395 175 278 90 551 165 710 195 63 12 228 45 365 72 480 94 875
149 1205 169 214 12 729 4 940 -15z m-4372 -30 c171 -41 332 -170 484 -389
l67 -96 -81 -62 c-45 -33 -112 -90 -150 -126 -38 -36 -70 -63 -73 -61 -9 10
-54 180 -64 249 -7 41 -17 87 -23 103 -12 30 -52 46 -76 30 -35 -22 -36 -39
-10 -170 14 -70 24 -129 22 -131 -1 -2 -20 8 -42 22 -22 14 -93 50 -158 80
-86 40 -122 52 -138 47 -24 -9 -42 -51 -33 -75 3 -8 66 -45 139 -82 136 -68
229 -126 262 -162 21 -24 35 -2 -112 -180 -63 -75 -96 -106 -133 -125 l-50
-25 -47 38 c-238 189 -392 527 -353 772 30 186 123 303 271 342 72 19 219 20
298 1z m7770 -80 c112 -27 187 -80 248 -177 126 -199 58 -518 -181 -851 l-47
-65 -91 43 c-51 23 -101 45 -112 49 -11 3 -60 46 -110 96 l-89 89 38 16 c63
26 133 35 285 35 107 0 152 4 165 13 23 17 24 66 2 82 -20 15 -215 24 -316 15
-41 -3 -76 -6 -77 -6 -1 1 18 41 42 89 24 49 58 133 76 187 31 95 31 100 15
125 -18 27 -66 35 -83 13 -6 -7 -23 -51 -38 -98 -32 -100 -109 -255 -166 -334
l-40 -56 -97 78 c-53 42 -134 102 -179 132 -45 30 -82 59 -83 63 0 16 149 193
221 263 80 77 154 128 238 163 117 50 263 63 379 36z m-6583 -995 c724 -67
1279 -507 1508 -1196 77 -231 107 -416 107 -651 -1 -768 -415 -1441 -1087
-1768 -502 -244 -1161 -311 -1618 -164 -178 57 -286 125 -452 283 -519 495
-762 1278 -618 1994 81 399 253 723 527 988 233 226 530 382 869 458 261 58
529 77 764 56z m5580 -20 c594 -38 1024 -219 1362 -574 254 -266 430 -641 487
-1036 83 -576 -68 -1175 -410 -1632 -274 -367 -518 -528 -904 -596 -119 -21
-501 -23 -635 -4 -613 88 -1081 335 -1411 742 -516 637 -577 1581 -148 2288
286 472 786 770 1361 811 65 4 123 9 128 10 6 0 82 -4 170 -9z m-13 -5397
c213 -223 308 -505 300 -889 l-2 -70 -202 -13 c-112 -7 -234 -16 -273 -21 -38
-5 -113 -14 -165 -20 -52 -6 -142 -18 -200 -26 -351 -50 -488 -64 -650 -64
-298 0 -476 55 -602 188 -103 107 -140 223 -103 319 74 194 484 394 1020 498
66 13 156 26 200 30 44 4 195 36 335 71 140 34 260 63 266 63 6 1 40 -29 76
-66z m-2772 -472 c25 -6 196 -10 380 -11 184 0 341 -4 349 -9 10 -6 12 -19 7
-45 -9 -47 -25 -55 -32 -17 l-6 31 -217 -1 c-191 -1 -213 -2 -186 -14 22 -10
78 -14 200 -15 l170 0 25 -43 c13 -23 23 -45 22 -49 -7 -25 21 -174 39 -210
12 -24 23 -64 25 -90 1 -26 5 -52 9 -57 11 -19 25 -12 25 12 0 22 0 22 20 -3
19 -24 20 -46 20 -756 0 -573 -3 -734 -12 -742 -7 -6 -26 -12 -43 -14 -28 -3
-33 -8 -65 -78 -6 -13 -134 -15 -1043 -18 -1132 -2 -1067 -6 -1067 53 0 26
-25 45 -59 45 -11 0 -27 7 -35 16 -14 14 -16 81 -15 597 0 547 1 585 19 627
l19 45 0 -97 c1 -54 3 -98 5 -98 2 0 28 16 58 36 87 58 245 130 375 171 l123
38 0 131 0 131 93 27 c165 47 278 58 527 54 202 -4 237 -7 345 -32 66 -16 135
-34 153 -41 l32 -14 0 -130 0 -130 43 -11 c141 -36 333 -119 455 -196 l52 -34
0 168 0 169 -85 49 -85 49 0 107 0 107 -57 34 c-205 123 -437 202 -671 227
-162 18 -467 8 -595 -20 -193 -41 -367 -107 -514 -195 l-83 -49 0 -107 0 -106
-71 -42 c-39 -22 -75 -38 -80 -35 -15 9 -10 44 6 50 13 5 15 35 15 180 l0 174
27 11 c36 13 63 38 74 67 8 22 11 22 178 22 126 0 177 4 202 15 31 13 16 14
-183 15 l-216 0 -12 -35 c-11 -35 -51 -65 -85 -65 -13 0 -15 -24 -15 -182 l-1
-183 -21 55 c-17 43 -22 83 -25 182 -5 141 3 168 43 168 37 0 64 18 64 43 1
53 -9 51 392 59 205 4 400 11 433 17 73 12 493 6 555 -8z m-3241 -56 c51 -7
95 -16 97 -18 2 -2 -1 -30 -7 -62 -11 -59 -26 -83 -135 -204 -50 -55 -67 -89
-84 -160 -25 -107 3 -220 79 -315 17 -21 31 -42 31 -46 0 -4 10 -20 22 -35 17
-22 21 -39 19 -84 -2 -31 -4 -57 -5 -58 -2 -2 -85 -7 -187 -12 -133 -7 -185
-7 -190 1 -17 27 -31 219 -26 333 13 242 81 439 214 615 24 33 52 60 61 60 10
0 59 -7 111 -15z m3283 -24 c178 -36 393 -121 530 -207 l38 -24 0 -130 0 -130
-52 31 c-139 81 -360 164 -524 195 -194 36 -530 34 -724 -6 -58 -12 -145 -35
-195 -51 -96 -32 -277 -115 -324 -149 -16 -11 -31 -20 -33 -20 -1 0 -2 59 -1
132 l2 132 38 24 c168 104 422 194 628 221 121 17 505 6 617 -18z m-2636 -42
c537 -52 953 -218 1015 -407 45 -136 -66 -335 -236 -424 -196 -102 -398 -127
-870 -107 l-291 13 10 54 c9 50 18 63 85 135 80 83 104 118 121 179 6 21 20
42 30 48 29 15 28 82 -1 102 l-21 14 21 38 c31 55 25 81 -19 81 -40 -1 -42 1
-110 112 -41 67 -50 91 -50 128 l0 45 103 0 c57 0 153 -5 213 -11z m-348 -193
c96 -50 157 -163 149 -276 -20 -288 -374 -373 -504 -121 -40 77 -45 159 -13
244 25 66 94 140 153 161 54 20 169 16 215 -8z m3660 -270 l62 -37 0 -130 c0
-71 -3 -129 -6 -129 -3 0 -18 8 -32 19 -52 36 -191 101 -298 138 l-109 37 115
22 c63 12 132 24 153 28 36 7 37 8 37 52 0 25 3 43 8 41 4 -2 35 -21 70 -41z
m-1998 -5 l0 -39 113 -21 c61 -11 132 -24 156 -27 l44 -7 -104 -37 c-129 -46
-205 -80 -279 -125 -32 -19 -59 -35 -61 -35 -9 0 1 254 10 263 13 13 104 67
114 67 4 0 7 -18 7 -39z"/>
<path d="M6765 6379 c-182 -24 -353 -97 -435 -186 -63 -69 -88 -143 -72 -212
10 -42 9 -47 -11 -61 -111 -77 -219 -201 -280 -325 -59 -118 -79 -190 -84
-306 -5 -92 -2 -116 16 -172 27 -80 64 -133 131 -186 78 -61 146 -84 270 -87
l105 -4 7 -117 c3 -65 14 -144 22 -176 46 -168 145 -271 302 -312 98 -26 341
-18 452 14 82 24 154 86 197 170 31 61 65 222 77 365 l11 141 106 0 c94 0 112
3 163 27 168 78 259 260 230 458 -32 224 -217 470 -424 565 -53 24 -57 28 -52
54 4 16 -1 55 -11 86 -40 138 -208 231 -480 264 -101 12 -140 12 -240 0z m732
-579 c115 -66 229 -201 275 -326 32 -87 31 -194 -3 -259 -58 -114 -153 -138
-359 -90 -215 49 -265 56 -385 57 -152 2 -240 -16 -460 -94 -146 -52 -181 -61
-245 -62 -164 -2 -260 84 -260 234 1 167 124 394 270 495 l39 27 49 -43 c69
-61 147 -106 249 -142 82 -29 97 -31 223 -31 115 0 145 3 200 23 95 33 200
102 266 175 33 36 66 65 74 65 8 1 38 -13 67 -29z m-283 -815 c38 -8 71 -17
74 -20 10 -10 -17 -308 -33 -370 -36 -138 -75 -176 -199 -190 l-59 -7 7 59 c3
32 -1 132 -9 223 -8 91 -18 200 -22 243 l-6 77 89 0 c49 0 120 -7 158 -15z
m-351 -80 c2 -38 12 -141 22 -228 13 -114 15 -175 9 -220 l-9 -62 -40 3 c-184
14 -255 127 -255 408 l0 101 98 31 c150 48 157 50 163 43 4 -3 9 -37 12 -76z"/>
<path d="M5110 7164 c-155 -40 -303 -155 -363 -282 -29 -61 -32 -76 -32 -162
0 -75 5 -108 23 -155 48 -126 171 -249 297 -297 48 -18 80 -23 160 -23 93 0
105 2 167 33 85 41 148 111 200 217 91 191 88 386 -9 533 -84 127 -266 183
-443 136z m6 -180 c12 -8 30 -31 39 -51 25 -51 14 -100 -30 -140 -29 -28 -42
-33 -84 -33 -143 0 -174 184 -41 239 30 12 84 5 116 -15z"/>
<path d="M11082 7260 c-163 -44 -300 -148 -363 -276 -32 -64 -34 -75 -34 -169
0 -89 3 -107 28 -161 77 -166 274 -263 481 -237 48 5 106 21 139 36 175 80
292 312 257 508 -17 93 -53 160 -115 218 -100 91 -246 121 -393 81z m7 -105
c35 -30 55 -83 46 -125 -8 -36 -63 -86 -104 -95 -67 -14 -146 53 -146 125 0
100 127 159 204 95z"/>
<path d="M9725 3028 c-11 -7 -42 -15 -70 -18 -48 -5 -50 -6 -50 -35 0 -25 5
-31 33 -39 62 -18 157 31 150 77 -4 26 -34 32 -63 15z"/>
<path d="M9400 3008 c-14 -6 -65 -14 -115 -17 -89 -6 -90 -6 -93 -33 -3 -22 2
-30 23 -38 39 -15 114 -12 176 6 68 20 81 31 77 63 -3 30 -28 37 -68 19z"/>
<path d="M9461 2766 c-8 -9 -11 -26 -7 -41 5 -19 13 -25 34 -25 15 0 50 -3 78
-6 40 -5 54 -3 67 11 20 20 21 26 5 47 -19 25 -159 36 -177 14z"/>
<path d="M6670 2405 c-177 -49 -232 -156 -211 -405 6 -75 7 -167 3 -232 -17
-215 13 -298 128 -356 87 -43 198 -59 305 -43 194 29 283 117 293 291 2 41 -1
179 -6 305 -8 194 -13 239 -31 285 -24 64 -77 121 -136 146 -56 24 -269 30
-345 9z m355 -70 c35 -34 34 -93 -1 -126 -21 -19 -36 -24 -81 -24 -49 0 -57 3
-85 34 -36 40 -32 72 13 114 41 37 118 39 154 2z m-300 5 c33 -12 59 -69 46
-102 -15 -39 -48 -61 -99 -66 -41 -4 -52 0 -80 23 -26 21 -32 34 -32 65 0 71
83 111 165 80z m124 -149 c21 -14 3 -31 -33 -31 -39 0 -50 8 -35 27 13 15 47
17 68 4z m-39 -51 c19 0 42 4 50 10 16 10 40 -4 40 -24 0 -9 -25 -12 -80 -12
-68 0 -80 2 -80 16 0 23 12 32 24 20 5 -5 26 -10 46 -10z m-10 -65 c0 -28 -17
-34 -27 -9 -3 9 0 20 8 25 19 12 19 12 19 -16z m50 10 c14 -16 6 -35 -16 -35
-8 0 -14 10 -14 25 0 28 12 32 30 10z"/>
<path d="M6861 2281 c-7 -13 -6 -23 3 -36 17 -24 50 -15 54 14 6 39 -39 56
-57 22z"/>
<path d="M6587 2283 c-16 -15 -6 -52 15 -59 28 -9 52 20 37 47 -10 19 -39 25
-52 12z"/>
<path d="M6451 2354 c-36 -30 -41 -72 -12 -98 19 -17 20 -17 35 12 8 16 13 32
10 34 -2 3 12 18 32 33 34 26 35 29 18 36 -34 13 -52 10 -83 -17z"/>
<path d="M7106 2371 c-18 -7 -17 -10 12 -31 19 -14 32 -33 32 -45 0 -12 6 -30
14 -40 14 -19 15 -19 35 -1 31 28 27 69 -10 100 -31 27 -49 30 -83 17z"/>
<path d="M6160 2051 c0 -5 17 -23 37 -40 26 -22 40 -28 48 -20 7 7 0 19 -25
40 -34 29 -60 37 -60 20z"/>
<path d="M7428 2034 c-34 -25 -42 -44 -17 -44 17 0 79 52 73 61 -8 14 -16 11
-56 -17z"/>
<path d="M6040 1977 c0 -8 33 -23 83 -37 89 -26 90 -26 95 -12 3 9 -138 62
-166 62 -6 0 -12 -6 -12 -13z"/>
<path d="M7496 1965 c-80 -28 -77 -27 -67 -43 5 -9 27 -5 89 16 45 15 83 32
84 37 5 18 -36 14 -106 -10z"/>
<path d="M5713 1889 c-10 -10 -13 -125 -13 -504 l0 -491 38 -10 c30 -7 41 -17
57 -51 l19 -43 1013 0 1013 0 0 21 c0 29 53 79 84 79 l26 0 0 494 c0 426 -2
495 -15 506 -8 7 -15 9 -15 4 0 -5 0 -225 0 -489 l0 -481 -40 -18 c-28 -12
-47 -29 -57 -52 l-17 -34 -983 0 -983 0 -10 24 c-9 25 -50 62 -81 71 -18 6
-19 24 -21 496 -2 392 -5 488 -15 478z"/>
<path d="M7200 1865 c0 -25 5 -34 22 -38 31 -8 52 22 32 45 -9 9 -24 18 -35
21 -16 4 -19 0 -19 -28z"/>
<path d="M6396 1871 c-9 -10 -14 -25 -10 -35 13 -33 74 -10 74 29 0 20 -5 25
-23 25 -13 0 -31 -8 -41 -19z"/>
<path d="M5870 1845 c0 -13 26 -15 170 -15 144 0 170 2 170 15 0 13 -26 15
-170 15 -144 0 -170 -2 -170 -15z"/>
<path d="M7440 1845 c0 -13 26 -15 170 -15 144 0 170 2 170 15 0 13 -26 15
-170 15 -144 0 -170 -2 -170 -15z"/>
<path d="M6118 1742 c-44 -15 -78 -32 -78 -39 0 -18 14 -16 103 13 43 14 76
31 74 37 -6 18 -18 16 -99 -11z"/>
<path d="M7430 1756 c0 -20 158 -72 173 -57 12 12 17 9 -92 46 -88 29 -81 29
-81 11z"/>
<path d="M6198 1672 c-37 -27 -50 -52 -25 -52 6 0 28 14 47 30 48 40 29 59
-22 22z"/>
<path d="M7401 1686 c-9 -10 -2 -19 29 -41 28 -19 44 -25 51 -18 7 7 -2 20
-29 42 -32 25 -42 28 -51 17z"/>
<path d="M6061 1546 c-10 -11 -18 -13 -31 -6 -29 15 -113 12 -138 -6 -39 -27
-45 -54 -51 -212 -5 -129 -9 -156 -23 -166 -16 -11 -16 -14 -1 -28 10 -10 18
-46 23 -97 10 -99 16 -120 43 -148 31 -35 76 -30 117 12 18 19 36 32 40 30 4
-3 10 -18 13 -35 4 -18 13 -30 22 -30 13 0 15 19 15 115 0 103 2 117 20 132
11 10 20 21 20 25 0 5 -38 8 -85 8 -47 0 -85 -4 -85 -9 0 -5 10 -15 23 -24 19
-13 22 -23 21 -85 -1 -72 -22 -127 -47 -119 -32 10 -37 52 -37 303 0 239 1
253 21 278 23 29 59 34 83 11 16 -16 21 -30 31 -88 11 -68 30 -38 33 53 3 86
-5 112 -27 86z"/>
<path d="M7611 1534 c-40 -28 -51 -73 -51 -203 0 -117 -9 -168 -33 -183 -9 -6
-9 -10 0 -16 19 -12 33 -59 33 -110 0 -138 80 -207 151 -131 33 35 59 33 59
-6 0 -15 6 -25 14 -25 11 0 15 24 18 116 3 108 5 118 26 132 12 8 22 18 22 23
0 5 -38 9 -85 9 -47 0 -85 -3 -85 -8 0 -4 9 -15 20 -25 21 -17 23 -31 20 -107
-2 -43 -23 -100 -38 -100 -4 0 -14 5 -22 10 -13 8 -15 53 -18 284 -3 266 -2
276 18 296 45 45 97 14 108 -66 4 -26 13 -49 20 -52 9 -3 12 19 12 87 0 72 -3
91 -14 91 -8 0 -16 -6 -19 -12 -4 -10 -7 -10 -18 0 -19 18 -110 15 -138 -4z"/>
<path d="M7077 1417 l-28 -22 24 -24 c28 -25 54 -25 71 1 9 14 6 23 -14 43
l-25 25 -28 -23z"/>
<path d="M6502 1410 c-27 -25 -27 -32 -2 -55 19 -17 21 -17 62 10 l42 28 -35
18 c-43 23 -41 23 -67 -1z"/>
<path d="M7440 1388 c-36 -21 -67 -45 -69 -54 -2 -12 2 -15 12 -11 27 10 37
-16 37 -97 0 -140 -5 -142 -66 -25 -30 56 -56 104 -58 106 -2 2 -34 -6 -70
-19 -63 -22 -88 -48 -46 -48 28 0 39 -28 30 -84 -5 -34 -15 -54 -31 -67 -19
-15 -21 -19 -7 -19 25 0 38 -31 38 -87 0 -51 -21 -93 -46 -93 -8 0 -14 -7 -14
-15 0 -12 14 -15 70 -15 56 0 70 3 70 15 0 8 -9 15 -19 15 -29 0 -34 15 -32
89 1 46 7 74 20 91 18 24 17 26 -1 51 -11 15 -18 37 -16 50 3 19 16 0 59 -86
31 -60 66 -136 79 -167 40 -98 57 -77 62 74 2 70 7 92 25 116 22 30 22 30 2
47 -15 15 -19 31 -19 86 0 76 9 108 40 139 43 43 16 47 -50 8z"/>
<path d="M6226 1371 c-12 -13 -22 -53 -31 -113 -8 -62 -18 -96 -28 -102 -14
-9 -13 -13 4 -37 11 -15 27 -60 38 -101 30 -122 57 -158 116 -158 58 0 90 41
106 138 5 33 16 62 26 69 15 12 15 14 -1 32 -9 10 -28 55 -42 101 -21 69 -33
90 -78 136 -56 58 -82 66 -110 35z m101 -68 c17 -41 32 -337 19 -387 -8 -31
-31 -34 -46 -5 -13 23 -31 342 -23 394 7 46 30 45 50 -2z"/>
<path d="M6490 1246 c0 -9 5 -16 10 -16 24 0 50 -41 50 -80 0 -27 -7 -47 -20
-60 l-20 -20 20 -20 c16 -16 20 -33 20 -85 0 -61 -2 -66 -25 -75 -56 -21 -23
-30 110 -30 l135 0 0 45 c0 53 -20 61 -37 15 -11 -30 -49 -48 -78 -36 -25 9
-21 130 5 156 l20 20 -20 20 c-14 14 -20 33 -20 65 0 39 4 47 25 57 41 18 23
32 -48 40 -37 3 -80 9 -97 13 -23 5 -30 3 -30 -9z"/>
<path d="M6923 1233 c-45 -4 -54 -18 -27 -38 25 -18 10 -81 -27 -116 -26 -24
-27 -28 -13 -40 12 -10 15 -24 10 -58 -8 -55 -30 -91 -56 -91 -11 0 -20 -7
-20 -15 0 -12 17 -15 90 -15 90 0 110 9 69 31 -18 9 -20 17 -14 47 16 92 25
112 49 112 22 0 25 -7 37 -72 12 -69 12 -72 -9 -86 -37 -24 -25 -32 48 -32 75
0 92 13 40 31 -22 8 -32 20 -40 47 -14 53 -12 98 5 112 13 11 11 16 -15 40
-17 15 -30 37 -30 48 0 11 -3 27 -6 36 -3 8 3 22 15 33 12 9 21 21 21 25 0 8
-45 8 -127 1z m76 -140 c1 -16 -5 -23 -18 -23 -17 0 -17 4 -7 47 9 41 11 44
17 23 4 -14 7 -35 8 -47z"/>
<path d="M6806 2743 c-3 -3 -6 -15 -6 -26 0 -20 -1 -20 -23 1 -13 12 -26 22
-30 22 -4 0 -7 -20 -7 -45 0 -25 5 -45 10 -45 6 0 10 12 10 28 l1 27 23 -29
c29 -35 46 -27 46 24 0 37 -10 56 -24 43z"/>
<path d="M6868 2742 c-20 -4 -34 -43 -24 -67 13 -35 86 -30 86 6 0 43 -27 69
-62 61z m22 -33 c-11 -8 -12 -12 -2 -16 6 -2 12 -9 12 -14 0 -12 -27 -11 -35
1 -11 17 3 40 22 40 16 0 16 -2 3 -11z"/>
<path d="M6656 2718 c-15 -21 -16 -21 -29 -4 -21 28 -33 13 -29 -33 4 -43 22
-58 22 -18 0 18 2 19 11 7 8 -11 12 -12 16 -2 7 17 25 15 21 -2 -2 -8 2 -16 7
-18 6 -2 11 18 13 45 3 51 -8 60 -32 25z"/>
<path d="M6700 2695 c0 -33 4 -45 15 -45 11 0 15 12 15 45 0 33 -4 45 -15 45
-11 0 -15 -12 -15 -45z"/>
<path d="M7000 2691 c0 -50 1 -51 30 -51 17 0 30 5 30 10 0 6 -9 10 -20 10
-16 0 -20 7 -20 34 0 19 -4 38 -10 41 -6 4 -10 -13 -10 -44z"/>
<path d="M6548 2707 c-17 -20 -18 -21 -28 -4 -19 30 -30 18 -30 -33 0 -27 5
-50 10 -50 6 0 10 12 10 26 0 21 3 24 13 15 10 -8 17 -7 25 1 9 9 12 7 12 -11
0 -12 4 -19 10 -16 11 7 14 95 3 95 -5 -1 -16 -11 -25 -23z"/>
<path d="M7095 2684 c-8 -20 -15 -40 -15 -45 0 -13 14 -11 28 3 9 9 16 8 30
-5 10 -9 22 -17 25 -17 11 0 -27 93 -40 97 -7 3 -19 -12 -28 -33z"/>
<path d="M6423 2699 c-15 -20 -36 -89 -29 -97 4 -3 14 4 22 17 13 18 19 20 30
10 25 -20 29 0 8 42 -16 32 -22 38 -31 28z"/>
<path d="M7180 2666 c0 -25 5 -48 10 -51 6 -4 10 6 10 22 l0 27 30 -34 29 -35
1 53 c0 33 -4 51 -10 47 -5 -3 -10 -14 -10 -23 -1 -13 -6 -10 -23 11 -13 15
-26 27 -30 27 -4 0 -7 -20 -7 -44z"/>
<path d="M6303 2668 c-13 -21 -10 -88 5 -88 6 0 12 10 12 23 1 20 2 21 14 5
14 -19 36 -24 36 -9 0 6 -5 13 -10 16 -7 4 -7 13 0 26 6 11 8 24 5 29 -9 14
-52 12 -62 -2z m37 -18 c0 -5 -4 -10 -10 -10 -5 0 -10 5 -10 10 0 6 5 10 10
10 6 0 10 -4 10 -10z"/>
<path d="M7287 2673 c-4 -3 -7 -19 -7 -34 0 -30 31 -59 62 -59 25 0 22 77 -3
91 -21 11 -43 12 -52 2z m47 -22 c4 -5 0 -12 -6 -14 -10 -4 -9 -8 2 -16 8 -5
11 -13 7 -17 -12 -12 -40 23 -34 40 7 18 23 21 31 7z"/>
<path d="M6235 2648 c-26 -15 -35 -28 -35 -54 0 -33 21 -45 50 -31 20 10 25
20 25 52 0 42 -10 50 -40 33z m15 -29 c-11 -8 -12 -12 -2 -16 15 -6 6 -23 -14
-23 -8 0 -14 8 -14 18 0 23 8 32 29 32 14 0 14 -2 1 -11z"/>
<path d="M7380 2624 c0 -45 26 -78 57 -72 14 2 18 12 18 42 0 23 -5 41 -12 44
-9 2 -13 -8 -13 -33 0 -47 -24 -42 -28 6 -5 51 -22 61 -22 13z"/>
<path d="M6120 2600 c-30 -30 -24 -75 9 -75 33 0 70 49 55 73 -16 25 -40 26
-64 2z m38 -27 c-4 -32 -38 -46 -38 -16 0 20 18 43 33 43 4 0 7 -12 5 -27z"/>
<path d="M7481 2579 c-16 -45 -14 -50 14 -43 18 4 25 2 25 -9 0 -8 7 -18 16
-21 11 -4 15 -2 11 8 -3 8 -11 32 -18 55 -15 49 -33 53 -48 10z"/>
<path d="M6038 2569 c-13 -7 -18 -23 -18 -54 0 -25 5 -45 10 -45 6 0 10 10 10
21 0 18 3 19 15 9 17 -14 39 -4 28 13 -5 7 -8 23 -8 36 0 28 -13 35 -37 20z
m22 -23 c0 -3 -4 -8 -10 -11 -5 -3 -10 -1 -10 4 0 6 5 11 10 11 6 0 10 -2 10
-4z"/>
<path d="M7555 2560 c-7 -23 18 -75 40 -84 30 -11 35 -6 33 35 -2 57 -58 95
-73 49z m46 -17 c10 -11 10 -14 2 -9 -16 9 -17 -6 -1 -22 9 -9 9 -12 0 -12
-14 0 -31 31 -25 48 6 16 8 15 24 -5z"/>
<path d="M5962 2524 c-16 -11 -22 -25 -22 -55 0 -25 4 -39 11 -37 6 2 9 6 7 9
-2 3 10 20 25 38 39 47 25 78 -21 45z m23 -24 c-3 -5 -11 -10 -16 -10 -6 0 -7
5 -4 10 3 6 11 10 16 10 6 0 7 -4 4 -10z"/>
<path d="M7640 2501 c0 -33 5 -43 30 -61 24 -17 30 -18 30 -6 0 8 -9 18 -20
21 -27 9 -25 24 3 18 22 -4 22 -4 -3 18 -24 21 -24 21 -2 15 26 -9 29 2 5 20
-31 23 -43 17 -43 -25z"/>
<path d="M4092 2535 c0 -16 2 -22 5 -12 2 9 2 23 0 30 -3 6 -5 -1 -5 -18z"/>
<path d="M4154 2462 c-6 -4 -11 -14 -11 -22 0 -17 -46 -95 -63 -105 -15 -10
-79 36 -73 52 3 8 -3 13 -17 13 -16 0 -21 -5 -18 -22 2 -11 11 -22 21 -24 25
-3 47 -24 58 -51 14 -37 57 -29 50 10 -1 5 13 33 31 63 21 35 38 52 47 49 9
-4 11 0 7 11 -3 8 -6 20 -6 25 0 11 -11 11 -26 1z"/>
<path d="M3880 2440 c0 -5 5 -10 11 -10 5 0 7 5 4 10 -3 6 -8 10 -11 10 -2 0
-4 -4 -4 -10z"/>
<path d="M4270 2409 c0 -5 5 -7 10 -4 6 3 10 8 10 11 0 2 -4 4 -10 4 -5 0 -10
-5 -10 -11z"/>
<path d="M3848 2323 c6 -2 18 -2 25 0 6 3 1 5 -13 5 -14 0 -19 -2 -12 -5z"/>
<path d="M4275 2290 c3 -5 16 -10 28 -9 21 0 21 1 2 9 -28 12 -37 12 -30 0z"/>
<path d="M4055 2080 c-4 -12 -5 -24 -2 -27 3 -2 8 5 12 17 4 12 5 24 2 27 -3
2 -8 -5 -12 -17z"/>
</g>
</svg>
